<?xml version="1.0" encoding="UTF-8" standalone="no"?>
<!-- Created with Inkscape (http://www.inkscape.org/) -->

<svg
   width="43.900002mm"
   height="50.799999mm"
   viewBox="0 0 43.900002 50.799999"
   version="1.1"
   id="svg1"
   xml:space="preserve"
   inkscape:version="1.4 (86a8ad7, 2024-10-11)"
   sodipodi:docname="logo.svg"
   xmlns:inkscape="http://www.inkscape.org/namespaces/inkscape"
   xmlns:sodipodi="http://sodipodi.sourceforge.net/DTD/sodipodi-0.dtd"
   xmlns="http://www.w3.org/2000/svg"
   xmlns:svg="http://www.w3.org/2000/svg"><sodipodi:namedview
     id="namedview1"
     pagecolor="#ffffff"
     bordercolor="#000000"
     borderopacity="1"
     inkscape:showpageshadow="2"
     inkscape:pageopacity="0.0"
     inkscape:pagecheckerboard="0"
     inkscape:deskcolor="#d1d1d1"
     inkscape:document-units="mm"
     inkscape:zoom="4.1928019"
     inkscape:cx="141.07511"
     inkscape:cy="93.612818"
     inkscape:window-width="1920"
     inkscape:window-height="1129"
     inkscape:window-x="-8"
     inkscape:window-y="-8"
     inkscape:window-maximized="1"
     inkscape:current-layer="layer1" /><defs
     id="defs1"><pattern
       id="EMFhbasepattern"
       patternUnits="userSpaceOnUse"
       width="6"
       height="6"
       x="0"
       y="0" /><clipPath
       clipPathUnits="userSpaceOnUse"
       id="clipPath358"><path
         d="M 0,624 H 1104 V 0 H 0 Z"
         transform="translate(-528.51172,-328.94041)"
         id="path358" /></clipPath><clipPath
       clipPathUnits="userSpaceOnUse"
       id="clipPath360"><path
         d="M 0,624 H 1104 V 0 H 0 Z"
         transform="translate(-500.82911,-310.90141)"
         id="path360" /></clipPath><clipPath
       clipPathUnits="userSpaceOnUse"
       id="clipPath362"><path
         d="M 0,624 H 1104 V 0 H 0 Z"
         transform="translate(-661.18162,-279.19531)"
         id="path362" /></clipPath><clipPath
       clipPathUnits="userSpaceOnUse"
       id="clipPath364"><path
         d="M 0,624 H 1104 V 0 H 0 Z"
         transform="translate(-495.24611,-450.30321)"
         id="path364" /></clipPath><clipPath
       clipPathUnits="userSpaceOnUse"
       id="clipPath366"><path
         d="M 0,624 H 1104 V 0 H 0 Z"
         transform="translate(-654.83501,-297.8437)"
         id="path366" /></clipPath><clipPath
       clipPathUnits="userSpaceOnUse"
       id="clipPath368"><path
         d="M 0,624 H 1104 V 0 H 0 Z"
         transform="translate(-487.64751,-331.71971)"
         id="path368" /></clipPath><clipPath
       clipPathUnits="userSpaceOnUse"
       id="clipPath372"><path
         d="M 0,624 H 1104 V 0 H 0 Z"
         transform="translate(-634.09961,-347.70851)"
         id="path372" /></clipPath><clipPath
       clipPathUnits="userSpaceOnUse"
       id="clipPath374"><path
         d="M 0,624 H 1104 V 0 H 0 Z"
         transform="translate(-507.44821,-414.91261)"
         id="path374" /></clipPath><clipPath
       clipPathUnits="userSpaceOnUse"
       id="clipPath376"><path
         d="M 0,624 H 1104 V 0 H 0 Z"
         transform="translate(-627.93752,-310.57621)"
         id="path376" /></clipPath><clipPath
       clipPathUnits="userSpaceOnUse"
       id="clipPath378"><path
         d="M 0,624 H 1104 V 0 H 0 Z"
         transform="translate(-577.62892,-376.91751)"
         id="path378" /></clipPath><clipPath
       clipPathUnits="userSpaceOnUse"
       id="clipPath380"><path
         d="M 0,624 H 1104 V 0 H 0 Z"
         transform="translate(-556.90141,-389.12651)"
         id="path380" /></clipPath><clipPath
       clipPathUnits="userSpaceOnUse"
       id="clipPath382"><path
         d="M 0,624 H 1104 V 0 H 0 Z"
         transform="translate(-590.29792,-466.29591)"
         id="path382" /></clipPath><clipPath
       clipPathUnits="userSpaceOnUse"
       id="clipPath384"><path
         d="M 0,624 H 1104 V 0 H 0 Z"
         transform="translate(-643.40332,-392.85741)"
         id="path384" /></clipPath><clipPath
       clipPathUnits="userSpaceOnUse"
       id="clipPath386"><path
         d="M 0,624 H 1104 V 0 H 0 Z"
         transform="translate(-597.01171,-375.98241)"
         id="path386" /></clipPath><clipPath
       clipPathUnits="userSpaceOnUse"
       id="clipPath388"><path
         d="M 0,624 H 1104 V 0 H 0 Z"
         transform="translate(-615.30182,-392.70561)"
         id="path388" /></clipPath><clipPath
       clipPathUnits="userSpaceOnUse"
       id="clipPath390"><path
         d="M 0,624 H 1104 V 0 H 0 Z"
         transform="translate(-578.82911,-325.65721)"
         id="path390" /></clipPath><clipPath
       clipPathUnits="userSpaceOnUse"
       id="clipPath392"><path
         d="M 0,624 H 1104 V 0 H 0 Z"
         transform="translate(-597.62992,-344.05711)"
         id="path392" /></clipPath><clipPath
       clipPathUnits="userSpaceOnUse"
       id="clipPath394"><path
         d="M 0,624 H 1104 V 0 H 0 Z"
         transform="translate(-611.24321,-390.39261)"
         id="path394" /></clipPath><clipPath
       clipPathUnits="userSpaceOnUse"
       id="clipPath396"><path
         d="M 0,624 H 1104 V 0 H 0 Z"
         transform="translate(-646.02341,-388.70261)"
         id="path396" /></clipPath><clipPath
       clipPathUnits="userSpaceOnUse"
       id="clipPath398"><path
         d="M 0,624 H 1104 V 0 H 0 Z"
         transform="translate(-561.77731,-425.22751)"
         id="path398" /></clipPath><clipPath
       clipPathUnits="userSpaceOnUse"
       id="clipPath400"><path
         d="M 0,624 H 1104 V 0 H 0 Z"
         transform="translate(-541.89451,-346.12891)"
         id="path400" /></clipPath><clipPath
       clipPathUnits="userSpaceOnUse"
       id="clipPath402"><path
         d="M 0,624 H 1104 V 0 H 0 Z"
         transform="translate(-561.77731,-425.22751)"
         id="path402" /></clipPath><clipPath
       clipPathUnits="userSpaceOnUse"
       id="clipPath404"><path
         d="M 0,624 H 1104 V 0 H 0 Z"
         transform="translate(-541.89451,-346.12891)"
         id="path404" /></clipPath><clipPath
       clipPathUnits="userSpaceOnUse"
       id="clipPath370"><path
         d="M 0,624 H 1104 V 0 H 0 Z"
         transform="translate(-601.05082,-473.07711)"
         id="path370" /></clipPath><clipPath
       clipPathUnits="userSpaceOnUse"
       id="clipPath5"><path
         d="M 0,800 H 1280 V 0 H 0 Z"
         transform="matrix(1.3333333,0,0,-1.3333333,0,1066.6667)"
         id="path5" /></clipPath><clipPath
       clipPathUnits="userSpaceOnUse"
       id="clipPath1"><path
         d="M -94.0381,686.397 H 481.877 V 81.5889 H -94.0381 Z"
         transform="translate(82.0288,-532.94382)"
         id="path1-6" /></clipPath><clipPath
       clipPathUnits="userSpaceOnUse"
       id="clipPath2"><path
         d="M -94.0381,686.397 H 481.877 V 81.5889 H -94.0381 Z"
         transform="translate(82.0288,-532.94382)"
         id="path2" /></clipPath><clipPath
       clipPathUnits="userSpaceOnUse"
       id="clipPath3"><path
         d="M 0,841.89 H 1190.55 V 0 H 0 Z"
         transform="translate(-308.75001,-634.73582)"
         id="path3-3" /></clipPath><clipPath
       clipPathUnits="userSpaceOnUse"
       id="clipPath5-3"><path
         d="M 0,841.89 H 1190.55 V 0 H 0 Z"
         transform="translate(-930.4912,-352.72361)"
         id="path5-4" /></clipPath><clipPath
       clipPathUnits="userSpaceOnUse"
       id="clipPath7"><path
         d="M 0,841.89 H 1190.55 V 0 H 0 Z"
         transform="translate(-1035.8478,-418.08011)"
         id="path7" /></clipPath><clipPath
       clipPathUnits="userSpaceOnUse"
       id="clipPath9"><path
         d="M 0,841.89 H 1190.55 V 0 H 0 Z"
         transform="translate(-984.03122,-418.08011)"
         id="path9" /></clipPath><clipPath
       clipPathUnits="userSpaceOnUse"
       id="clipPath11"><path
         d="M 0,841.89 H 1190.55 V 0 H 0 Z"
         transform="translate(-560.43851,-457.43071)"
         id="path11" /></clipPath><clipPath
       clipPathUnits="userSpaceOnUse"
       id="clipPath13"><path
         d="M 0,841.89 H 1190.55 V 0 H 0 Z"
         transform="translate(-515.04541,-297.9277)"
         id="path13" /></clipPath><clipPath
       clipPathUnits="userSpaceOnUse"
       id="clipPath15"><path
         d="M 0,841.89 H 1190.55 V 0 H 0 Z"
         transform="translate(-391.68261,-475.49271)"
         id="path15" /></clipPath><clipPath
       clipPathUnits="userSpaceOnUse"
       id="clipPath17"><path
         d="M 0,841.89 H 1190.55 V 0 H 0 Z"
         transform="translate(-715.52342,-429.70261)"
         id="path17" /></clipPath><clipPath
       clipPathUnits="userSpaceOnUse"
       id="clipPath19"><path
         d="M 0,841.89 H 1190.55 V 0 H 0 Z"
         transform="translate(-205.79101,-533.75441)"
         id="path19" /></clipPath><clipPath
       clipPathUnits="userSpaceOnUse"
       id="clipPath21"><path
         d="M 0,841.89 H 1190.55 V 0 H 0 Z"
         transform="translate(-271.25391,-555.99611)"
         id="path21" /></clipPath><clipPath
       clipPathUnits="userSpaceOnUse"
       id="clipPath23"><path
         d="M 0,841.89 H 1190.55 V 0 H 0 Z"
         transform="translate(-637.01762,-353.88381)"
         id="path23" /></clipPath><clipPath
       clipPathUnits="userSpaceOnUse"
       id="clipPath25"><path
         d="M 0,841.89 H 1190.55 V 0 H 0 Z"
         id="path25" /></clipPath><clipPath
       clipPathUnits="userSpaceOnUse"
       id="clipPath27"><path
         d="M 0,841.89 H 1190.55 V 0 H 0 Z"
         transform="translate(-709.15042,-533.74411)"
         id="path27" /></clipPath><clipPath
       clipPathUnits="userSpaceOnUse"
       id="clipPath29"><path
         d="M 0,841.89 H 1190.55 V 0 H 0 Z"
         transform="translate(-551.52691,-422.21341)"
         id="path29" /></clipPath></defs><g
     inkscape:label="Ebene 1"
     inkscape:groupmode="layer"
     id="layer1"><path
       style="fill:#ffffff;stroke:#000000;stroke-width:0.140458px;stroke-linecap:butt;stroke-linejoin:miter;stroke-miterlimit:10;stroke-dasharray:none;stroke-opacity:1;fill-opacity:1"
       d="M 43.829771,38.059521 21.95,50.718981 0.070229,38.059521 V 12.740599 L 21.95,0.08113711 43.829771,12.740599 Z"
       id="path1" /><path
       d="m 0,0 -1.009,4.152 0.834,4.165 -2.159,3.971 -4.403,3.608 0.359,3.529 0.394,3.871 3.209,2.276 2.733,4.353 -0.539,2.827 2.872,5.894 4.649,5.31 2.812,1.346 2.211,4.872 0.198,4.45 3.015,5.164 5.565,3.044 5.295,8.53 4.352,3.325 7.768,0.922 6.581,5.71 4.188,2.225 6.972,6.975 -2.086,10.393 3.173,7.186 1.12,4.398 5.373,5.643 8.38,3.816 6.195,3.453 5.582,8.649 2.625,5.13 6.149,-0.041 5.035,-3.545 7.944,0.577 8.652,-1.844 3.628,-0.089 8.03,4.565 9.03,1.452 5.274,3.446 8.044,2.542 14.157,1.489 13.816,0.678 4.212,-1.241 7.867,3.293 8.925,0.063 3.397,-1.942 5.713,0.507 9.097,3.371 5.846,-1.003 -0.244,-4.226 7.084,3.074 0.595,-1.605 -4.177,-4.092 -0.056,-3.864 2.892,-2.075 -1.1,-7.229 -5.498,-4.199 1.587,-4.553 4.321,-0.142 2.102,-3.971 3.176,-1.306 9.811,-2.876 3.507,0.72 6.979,-1.394 11.083,-3.733 3.912,-7.425 7.499,-1.621 11.772,-3.496 8.899,-4.153 4.073,2.167 4.004,3.842 -1.946,6.399 2.62,4.062 6.018,3.915 5.752,1.139 11.299,-1.709 2.848,-3.735 3.111,-0.035 2.658,-1.425 8.301,-0.98 2.034,-2.758 11.114,0.138 8.039,-2.209 8.293,-2.468 3.868,-1.3 6.431,2.646 3.437,2.393 7.367,0.689 5.939,-1.055 2.276,-4.142 3.007,-9.801 3.462,-8.813 5.128,-8.398 6.313,-13.01 3.085,-4.541 2.682,-4.719 7.496,-9.247 -1.659,-1.456 0.269,-5.429 9.729,-7.497 1.466,-1.711 2.693,-8.196 -1.831,-1.515 1.214,-8.6 3.066,-9.971 3.181,-2.057 4.573,-3.087 4.849,-9.671 2.3,-7.666 4.579,-4.069 11.403,-7.89 4.641,-4.761 4.526,-4.82 2.613,-2.87 4.106,-2.513 1.977,-2.586 -0.263,-3.467 -4.766,-1.999 3.587,-2.285 2.718,-1.541 1.637,-3.453 3.768,-3.497 4.148,-0.028 7.873,2.137 9.092,0.99 7.353,2.595 4.142,0.55 2.984,1.524 4.757,0.293 2.669,0.165 3.849,1.241 4.428,0.841 3.954,2.859 3.167,0.023 0.189,-2.309 -0.77,-4.858 0.03,-4.391 -1.762,-3.017 -2.354,-9.029 -4.022,-9.331 -5.164,-10.667 -7.169,-12.242 -7.131,-9.352 -9.823,-11.394 -8.36,-6.761 -12.494,-8.297 -7.787,-6.354 -9.141,-10.117 -1.926,-4.404 -1.887,-1.977 -5.85,-3.334 -2.063,-3.488 -3.13,-0.611 -1.185,-5.885 -2.682,-3.369 -1.63,-5.561 -3.364,-2.756 -3.856,-10.293 0.494,-4.734 5.348,-3.043 0.25,-2.172 -2.299,-5.045 0.479,-2.537 -0.547,-3.992 2.917,-5.236 3.457,-8.237 3.065,-1.826 1.352,-3.746 -0.343,-8.32 1.031,-7.33 0.324,-13.053 1.47,-4.092 -2.492,-5.969 -3.24,-5.8 -5.319,-5.178 -7.636,-3.178 -9.416,-4.055 -9.437,-8.964 -3.215,-1.524 -5.83,-5.935 -3.442,-1.932 -0.705,-5.957 3.961,-6.324 1.647,-4.899 0.104,-2.5 1.476,0.42 -0.239,-8.193 -1.355,-3.883 1.969,-1.428 -1.241,-3.476 -3.492,-2.973 -6.891,-2.82 -10.046,-4.522 -3.663,-3.09 0.717,-3.517 2.134,-0.561 -0.716,-4.398 -2.088,-6.082 -0.986,-6.94 -2.162,-3.769 -5.7,-4.219 -1.632,-1.207 -3.54,-4.242 -2.33,-4.293 -4.736,-5.984 -9.441,-8.618 -5.896,-5.011 -6.307,-3.801 -8.73,-3.242 -4.259,-0.436 -1.078,-2.318 -5.076,1.234 -4.135,-1.588 -9.052,1.61 -5.061,-1.02 -3.459,0.438 -8.614,-3.297 -7.132,-1.323 -5.16,-3.156 -3.8,-0.203 -3.534,2.981 -2.823,0.152 -3.598,3.728 -0.394,-1.158 -1.11,2.244 0.046,4.899 -2.713,5.595 2.695,1.526 -0.218,6.408 -5.47,7.818 -4.197,7.075 -0.013,0.023 -5.997,10.854 -6.207,6.308 -3.269,6.1 -1.844,8.133 -2.059,6.05 -2.799,12.866 -0.187,9.992 -1.069,4.556 -3.25,3.442 -4.312,6.902 -4.39,10.022 -1.824,5.244 -6.797,8.154 -0.506,6.408 -0.786,5.25 1.156,7.346 2.883,7.648 0.434,3.582 2.71,7.532 1.992,3.424 4.798,5.464 2.68,3.715 0.877,6.188 -0.438,4.734 -2.498,2.986 -2.224,5.069 -2.052,5.012 0.449,1.736 2.567,3.312 -2.534,8.069 -1.711,5.593 -4.184,5.284 0.795,1.623 -1.171,2.59 -2.233,6.283 -6.859,8.845 -8.584,8.43 -5.521,6.893 -5.072,8.631 0.268,2.773 1.824,2.672 2.029,6.08 1.683,6.193 -1.564,1.262 2.87,9.379 1.22,6.594 -3.265,5.523 -3.811,1.416 -1.698,3.744 -2.138,1.196 0.095,2.309 -8.671,-3.005 -3.17,0.439 -3.212,-1.871 -6.682,0.181 -4.472,5.225 -2.75,6.047 -5.914,5.503 -6.276,-0.104 -7.372,0.005 -6.902,-0.975 -6.726,-1.782 -13.096,-4.888 -4.643,-2.866 -7.527,-2.423 -7.446,2.373 -3.8,-0.085 -5.828,1.633 -5.355,-0.097 -9.895,-1.458 -5.799,-2.41 -8.271,-3.064 -1.614,0.219 -2.188,-0.073 -8.609,3.981 -7.59,6.358 -7.116,4.57 -5.625,5.389 -2.25,0.62 -6.014,3.365 -4.352,4.475 -1.461,3.052 -1.023,6.173 -3.664,4.942 -3.248,3.27 -2.139,1.082 -2.085,1.66 -0.948,3.69 -1.223,1.84 -2.428,1.369 -4.46,3.492 -3.516,0.553 -1.918,2.354 0.049,1.271 -2.547,1.772 -0.531,1.788 -1.371,6.403 1.068,3.705 -3.445,6.503 -4.168,2.974 3.675,1.586 4.047,5.865 1.984,4.289 -0.723,4.501 2.332,4.118 1.037,7.865 z"
       style="fill:#f2f2f2;fill-opacity:1;fill-rule:nonzero;stroke:none"
       transform="matrix(0.06788083,0,0,-0.06788083,2.8195358,17.328307)"
       clip-path="url(#clipPath1)"
       id="path3" /><path
       d="m 0,0 -1.009,4.152 0.834,4.165 -2.159,3.971 -4.403,3.608 0.359,3.529 0.394,3.871 3.209,2.276 2.733,4.353 -0.539,2.827 2.872,5.894 4.649,5.31 2.812,1.346 2.211,4.872 0.198,4.45 3.015,5.164 5.565,3.044 5.295,8.53 4.352,3.325 7.768,0.922 6.581,5.71 4.188,2.225 6.972,6.975 -2.086,10.393 3.173,7.186 1.12,4.398 5.373,5.643 8.38,3.816 6.195,3.453 5.582,8.649 2.625,5.13 6.149,-0.041 5.035,-3.545 7.944,0.577 8.652,-1.844 3.628,-0.089 8.03,4.565 9.03,1.452 5.274,3.446 8.044,2.542 14.157,1.489 13.816,0.678 4.212,-1.241 7.867,3.293 8.925,0.063 3.397,-1.942 5.713,0.507 9.097,3.371 5.846,-1.003 -0.244,-4.226 7.084,3.074 0.595,-1.605 -4.177,-4.092 -0.056,-3.864 2.892,-2.075 -1.1,-7.229 -5.498,-4.199 1.587,-4.553 4.321,-0.142 2.102,-3.971 3.176,-1.306 9.811,-2.876 3.507,0.72 6.979,-1.394 11.083,-3.733 3.912,-7.425 7.499,-1.621 11.772,-3.496 8.899,-4.153 4.073,2.167 4.004,3.842 -1.946,6.399 2.62,4.062 6.018,3.915 5.752,1.139 11.299,-1.709 2.848,-3.735 3.111,-0.035 2.658,-1.425 8.301,-0.98 2.034,-2.758 11.114,0.138 8.039,-2.209 8.293,-2.468 3.868,-1.3 6.431,2.646 3.437,2.393 7.367,0.689 5.939,-1.055 2.276,-4.142 3.007,-9.801 3.462,-8.813 5.128,-8.398 6.313,-13.01 3.085,-4.541 2.682,-4.719 7.496,-9.247 -1.659,-1.456 0.269,-5.429 9.729,-7.497 1.466,-1.711 2.693,-8.196 -1.831,-1.515 1.214,-8.6 3.066,-9.971 3.181,-2.057 4.573,-3.087 4.849,-9.671 2.3,-7.666 4.579,-4.069 11.403,-7.89 4.641,-4.761 4.526,-4.82 2.613,-2.87 4.106,-2.513 1.977,-2.586 -0.263,-3.467 -4.766,-1.999 3.587,-2.285 2.718,-1.541 1.637,-3.453 3.768,-3.497 4.148,-0.028 7.873,2.137 9.092,0.99 7.353,2.595 4.142,0.55 2.984,1.524 4.757,0.293 2.669,0.165 3.849,1.241 4.428,0.841 3.954,2.859 3.167,0.023 0.189,-2.309 -0.77,-4.858 0.03,-4.391 -1.762,-3.017 -2.354,-9.029 -4.022,-9.331 -5.164,-10.667 -7.169,-12.242 -7.131,-9.352 -9.823,-11.394 -8.36,-6.761 -12.494,-8.297 -7.787,-6.354 -9.141,-10.117 -1.926,-4.404 -1.887,-1.977 -5.85,-3.334 -2.063,-3.488 -3.13,-0.611 -1.185,-5.885 -2.682,-3.369 -1.63,-5.561 -3.364,-2.756 -3.856,-10.293 0.494,-4.734 5.348,-3.043 0.25,-2.172 -2.299,-5.045 0.479,-2.537 -0.547,-3.992 2.917,-5.236 3.457,-8.237 3.065,-1.826 1.352,-3.746 -0.343,-8.32 1.031,-7.33 0.324,-13.053 1.47,-4.092 -2.492,-5.969 -3.24,-5.8 -5.319,-5.178 -7.636,-3.178 -9.416,-4.055 -9.437,-8.964 -3.215,-1.524 -5.83,-5.935 -3.442,-1.932 -0.705,-5.957 3.961,-6.324 1.647,-4.899 0.104,-2.5 1.476,0.42 -0.239,-8.193 -1.355,-3.883 1.969,-1.428 -1.241,-3.476 -3.492,-2.973 -6.891,-2.82 -10.046,-4.522 -3.663,-3.09 0.717,-3.517 2.134,-0.561 -0.716,-4.398 -2.088,-6.082 -0.986,-6.94 -2.162,-3.769 -5.7,-4.219 -1.632,-1.207 -3.54,-4.242 -2.33,-4.293 -4.736,-5.984 -9.441,-8.618 -5.896,-5.011 -6.307,-3.801 -8.73,-3.242 -4.259,-0.436 -1.078,-2.318 -5.076,1.234 -4.135,-1.588 -9.052,1.61 -5.061,-1.02 -3.459,0.438 -8.614,-3.297 -7.132,-1.323 -5.16,-3.156 -3.8,-0.203 -3.534,2.981 -2.823,0.152 -3.598,3.728 -0.394,-1.158 -1.11,2.244 0.046,4.899 -2.713,5.595 2.695,1.526 -0.218,6.408 -5.47,7.818 -4.197,7.075 -0.013,0.023 -5.997,10.854 -6.207,6.308 -3.269,6.1 -1.844,8.133 -2.059,6.05 -2.799,12.866 -0.187,9.992 -1.069,4.556 -3.25,3.442 -4.312,6.902 -4.39,10.022 -1.824,5.244 -6.797,8.154 -0.506,6.408 -0.786,5.25 1.156,7.346 2.883,7.648 0.434,3.582 2.71,7.532 1.992,3.424 4.798,5.464 2.68,3.715 0.877,6.188 -0.438,4.734 -2.498,2.986 -2.224,5.069 -2.052,5.012 0.449,1.736 2.567,3.312 -2.534,8.069 -1.711,5.593 -4.184,5.284 0.795,1.623 -1.171,2.59 -2.233,6.283 -6.859,8.845 -8.584,8.43 -5.521,6.893 -5.072,8.631 0.268,2.773 1.824,2.672 2.029,6.08 1.683,6.193 -1.564,1.262 2.87,9.379 1.22,6.594 -3.265,5.523 -3.811,1.416 -1.698,3.744 -2.138,1.196 0.095,2.309 -8.671,-3.005 -3.17,0.439 -3.212,-1.871 -6.682,0.181 -4.472,5.225 -2.75,6.047 -5.914,5.503 -6.276,-0.104 -7.372,0.005 -6.902,-0.975 -6.726,-1.782 -13.096,-4.888 -4.643,-2.866 -7.527,-2.423 -7.446,2.373 -3.8,-0.085 -5.828,1.633 -5.355,-0.097 -9.895,-1.458 -5.799,-2.41 -8.271,-3.064 -1.614,0.219 -2.188,-0.073 -8.609,3.981 -7.59,6.358 -7.116,4.57 -5.625,5.389 -2.25,0.62 -6.014,3.365 -4.352,4.475 -1.461,3.052 -1.023,6.173 -3.664,4.942 -3.248,3.27 -2.139,1.082 -2.085,1.66 -0.948,3.69 -1.223,1.84 -2.428,1.369 -4.46,3.492 -3.516,0.553 -1.918,2.354 0.049,1.271 -2.547,1.772 -0.531,1.788 -1.371,6.403 1.068,3.705 -3.445,6.503 -4.168,2.974 3.675,1.586 4.047,5.865 1.984,4.289 -0.723,4.501 2.332,4.118 1.037,7.865 L 0,0"
       style="fill:none;stroke:#b3b3b3;stroke-width:2;stroke-linecap:square;stroke-linejoin:bevel;stroke-miterlimit:10;stroke-dasharray:none;stroke-opacity:1"
       transform="matrix(0.06788083,0,0,-0.06788083,2.8195358,17.328307)"
       clip-path="url(#clipPath2)"
       id="path4" /><path
       id="path357"
       d="M 0,0 C 9.64,-0.125 17.613,7.647 17.729,17.298 17.828,25.613 11.492,35.116 -0.18,35.276 -8.613,35.392 -17.922,29 -17.897,18.104 -17.873,7.669 -10.236,-0.067 0,0 m 47.158,87.705 c 0.333,6.383 -4.022,12.524 -10.207,14.3 -3.944,1.133 -7.889,0.807 -11.318,-1.388 C 21.079,97.702 18.551,93.345 18.236,87.866 17.487,74.803 30.073,70.167 38.38,73.829 c 6.033,2.66 8.518,7.57 8.778,13.876 M 42.666,69.854 C 41.49,69.607 40.322,69.427 39.19,69.113 33.654,67.579 28.301,67.914 23.095,70.455 22.575,70.708 21.638,70.652 21.151,70.34 18.004,68.32 14.941,66.167 11.823,64.099 7.452,61.199 4.653,57.129 2.906,52.264 2.504,51.144 2.084,50.023 1.795,48.873 1.511,47.742 0.982,47.219 -0.242,47.477 c -0.845,0.178 -1.723,0.198 -2.869,0.317 0.082,1.022 0.066,1.954 0.244,2.847 1.16,5.811 4.099,10.698 8.148,14.901 2.262,2.346 4.824,4.402 7.257,6.583 0.236,0.212 0.542,0.349 0.765,0.572 0.674,0.677 1.001,1.454 0.499,2.378 -0.542,0.998 -1.489,1.35 -2.446,0.954 C 10.119,75.515 8.896,74.852 7.84,74.03 2.881,70.171 -1.398,65.681 -4.332,60.061 c -1.89,-3.623 -3.452,-7.385 -3.885,-11.509 -0.099,-0.951 -0.187,-1.917 -0.138,-2.868 0.081,-1.545 0.387,-1.996 1.858,-1.838 4.451,0.48 8.306,-1.251 12.161,-3.01 5.241,-2.392 10.727,-3.645 16.482,-3.661 15.834,-0.044 31.671,-0.023 47.506,-0.128 3.911,-0.026 7.576,1.056 11.319,1.859 1.061,0.228 2.149,0.332 3.341,0.511 0.156,-0.879 0.261,-1.477 0.387,-2.188 0.513,-0.065 1.054,-0.194 1.596,-0.193 6.078,0.007 12.156,0.036 18.235,0.057 1.039,0.003 2.08,0.016 3.118,-0.013 2.462,-0.069 3.148,-0.738 3.221,-3.142 0.014,-0.468 -0.068,-0.938 -0.129,-1.684 -0.798,-0.074 -1.552,-0.205 -2.307,-0.206 -21.995,-0.03 -43.988,-0.045 -65.982,-0.068 -1.439,-0.001 -2.881,0 -4.317,-0.072 -3.252,-0.163 -6.742,-2.546 -5.993,-6.76 1.875,-10.548 1.13,-21.213 1.559,-31.825 0.123,-3.036 0.342,-6.068 0.496,-9.103 0.04,-0.787 0.006,-1.578 0.006,-2.666 -1.094,-0.057 -2.094,-0.155 -3.094,-0.155 -10.237,0.002 -20.475,0.016 -30.712,0.032 -6.478,0.009 -12.958,0.072 -19.435,0.019 -1.549,-0.013 -2.559,0.58 -3.375,1.807 -3.8,5.707 -7.721,11.335 -11.391,17.124 -1.611,2.544 -2.78,5.378 -4.054,8.123 -2.196,4.728 -3.684,9.666 -4.455,14.841 -1.092,7.323 -0.293,14.524 1.244,21.669 1.545,7.181 4.615,13.746 8.552,19.913 2.452,3.839 5.099,7.524 8.252,10.844 4.093,4.308 8.553,8.17 13.668,11.184 5.222,3.076 10.533,6.011 15.894,8.839 2.367,1.249 4.663,2.623 6.341,4.627 2.514,3.007 5.768,4.737 9.207,6.266 5.883,2.617 12.041,3.685 18.467,3.14 2.15,-0.182 4.306,-0.32 6.447,-0.585 1.959,-0.243 3.24,0.534 3.984,2.297 1.8,4.264 3.596,8.529 5.379,12.8 0.83,1.99 1.583,4.013 2.451,5.986 0.89,2.02 1.672,2.463 3.787,1.612 3.03,-1.219 5.984,-2.646 8.903,-4.117 6.62,-3.333 13.179,-6.788 19.803,-10.114 4.271,-2.144 4.539,-2.533 2.855,-6.946 C 90.303,103.9 87.568,97.085 84.944,90.228 83.805,87.248 82.64,84.257 81.816,81.183 81.165,78.752 79.744,77.151 77.791,75.771 72.373,71.945 66.693,68.559 60.874,65.386 c -2.661,-1.45 -5.24,-3.051 -7.867,-4.565 -0.411,-0.237 -0.868,-0.409 -1.321,-0.555 -3.006,-0.973 -4.702,-0.255 -5.984,2.618 -0.846,1.893 -1.584,3.834 -2.384,5.747 -0.15,0.358 -0.365,0.689 -0.652,1.223"
       style="fill:#362683;fill-opacity:1;fill-rule:evenodd;stroke:none"
       transform="matrix(0.12235965,0,0,-0.12235965,19.956166,31.744609)"
       clip-path="url(#clipPath358)" /><path
       id="path359"
       d="m 0,0 c -0.849,-0.167 -1.216,-0.298 -1.586,-0.306 -7.369,-0.131 -14.72,0.129 -21.979,1.495 -2.343,0.441 -4.617,1.26 -6.918,1.92 -1.214,0.349 -1.932,1.073 -1.788,2.441 0.058,0.555 0.045,1.118 0.066,1.678 0.094,2.457 -0.24,2.996 -2.489,4.066 -3.382,1.609 -6.815,3.121 -10.131,4.856 -7.063,3.697 -13.397,8.434 -18.753,14.326 -6.11,6.722 -10.933,14.26 -13.93,22.951 -3.353,9.725 -3.674,19.525 -1.668,29.523 2.036,10.149 6.464,19.186 12.723,27.328 2.869,3.733 6.145,7.15 9.177,10.76 0.917,1.092 1.657,2.338 2.44,3.539 1.385,2.123 1.689,4.439 1.196,6.901 -0.089,0.444 -0.013,0.922 -0.013,1.624 1.346,-0.068 2.589,-0.119 3.83,-0.195 10.951,-0.669 21.904,-0.149 32.856,-0.058 4.338,0.036 4.028,0.713 5.066,-4.145 1.665,-7.798 1.696,-15.64 -1.383,-23.123 -1.382,-3.36 -3.324,-6.56 -5.44,-9.529 -3.423,-4.802 -7.308,-9.274 -10.8,-14.03 -4.889,-6.659 -7.548,-14.182 -8.178,-22.437 -0.44,-5.768 -0.328,-11.51 0.627,-17.213 0.64,-3.819 2.214,-7.353 3.914,-10.781 2.815,-5.674 6.886,-10.341 12.113,-13.96 3.059,-2.116 6.567,-3.248 9.997,-4.553 0.657,-0.25 1.396,-0.485 1.882,-0.951 C -5.57,8.683 -2.939,4.511 0,0"
       style="fill:#ee7401;fill-opacity:1;fill-rule:evenodd;stroke:none"
       transform="matrix(0.12235965,0,0,-0.12235965,16.568931,33.951855)"
       clip-path="url(#clipPath360)" /><path
       id="path361"
       d="m 0,0 c -0.786,-0.059 -1.481,-0.152 -2.176,-0.152 -58.137,0.039 -116.273,0.086 -174.409,0.138 -5.118,0.004 -10.235,0.047 -15.353,0.08 -0.799,0.006 -1.598,0.067 -2.396,0.09 -0.97,0.028 -1.491,0.518 -1.491,1.487 0,3.277 -0.006,6.554 0.043,9.832 0.017,1.154 0.751,1.711 1.868,1.763 0.798,0.037 1.598,0.055 2.397,0.055 62.055,-0.01 124.11,-0.022 186.165,-0.035 0.639,0 1.278,-0.02 1.917,-0.035 3.32,-0.08 3.401,-0.09 3.559,-3.301 C 0.263,7.129 0.239,4.326 0.258,1.529 0.261,1.07 0.108,0.611 0,0"
       style="fill:#362683;fill-opacity:1;fill-rule:evenodd;stroke:none"
       transform="matrix(0.12235965,0,0,-0.12235965,36.189608,37.831402)"
       clip-path="url(#clipPath362)" /><path
       id="path363"
       d="m 0,0 c -13.157,-0.276 -24.189,-0.627 -35.222,-0.696 -7.352,-0.045 -14.711,0.238 -22.06,0.536 -2.047,0.083 -4.088,0.674 -6.097,1.174 -0.61,0.152 -1.36,0.674 -1.588,1.218 -0.38,0.909 0.227,1.766 1.021,2.207 1.387,0.773 2.804,1.587 4.312,2.029 3.675,1.077 7.36,2.254 11.127,2.857 17.653,2.825 35.466,3.496 53.31,3.422 7.515,-0.032 15.039,-0.14 22.541,-0.557 7.574,-0.421 15.144,-1.11 22.681,-1.992 C 54.22,9.707 58.311,8.463 62.168,6.652 63.236,6.15 64.305,5.523 65.166,4.729 66.745,3.274 66.384,1.39 64.397,0.535 63.461,0.132 62.414,-0.104 61.396,-0.215 52.475,-1.192 43.521,-1.295 34.564,-1.056 22.336,-0.729 10.111,-0.312 0,0"
       style="fill:#362683;fill-opacity:1;fill-rule:evenodd;stroke:none"
       transform="matrix(0.12235965,0,0,-0.12235965,15.885797,16.894698)"
       clip-path="url(#clipPath364)" /><path
       id="path365"
       d="m 0,0 c -0.669,-0.133 -1.318,-0.373 -1.968,-0.373 -14.549,-0.002 -29.097,0.045 -43.646,0.041 -19.35,-0.006 -38.699,-0.078 -58.047,-0.064 -21.906,0.013 -43.814,0.095 -65.72,0.13 -3.517,0.006 -7.034,-0.091 -10.552,-0.119 -0.931,-0.006 -1.864,0.071 -2.9,0.112 -0.058,1.689 0.493,2.882 1.491,3.822 2.445,2.301 5.185,3.916 8.719,3.916 6.874,0 13.748,0.15 20.622,0.168 18.47,0.051 36.939,0.066 55.409,0.092 27.104,0.037 54.207,0.072 81.311,0.113 1.759,0.004 3.517,0.055 5.275,0.098 C -5.121,8.057 -1.382,5.184 0,0"
       style="fill:#00a5aa;fill-opacity:1;fill-rule:evenodd;stroke:none"
       transform="matrix(0.12235965,0,0,-0.12235965,35.413039,35.54959)"
       clip-path="url(#clipPath366)" /><path
       id="path367"
       d="m 0,0 c -2.787,0.925 -4.89,2.298 -6.865,3.847 -4.268,3.346 -6.956,7.829 -9.095,12.727 -2.027,4.639 -2.477,9.544 -2.726,14.5 -0.229,4.58 0.094,9.172 1.258,13.558 0.908,3.42 2.3,6.881 4.239,9.82 3.46,5.249 7.496,10.117 11.292,15.145 4.21,5.578 7.944,11.434 9.478,18.359 1.34,6.048 1.718,12.176 0.574,18.328 -0.248,1.335 -0.439,2.68 -0.709,4.011 -0.231,1.148 0.245,1.687 1.358,1.7 2.238,0.026 4.476,0.009 6.715,0.035 1.23,0.013 1.767,-0.662 1.75,-1.786 -0.071,-4.55 0.032,-9.115 -0.327,-13.643 C 16.517,91.237 14.488,86.225 12.868,81.137 12.36,79.544 12.116,77.83 11.383,76.355 10.357,74.293 9.065,72.35 7.747,70.453 4.547,65.851 1.905,60.955 -0.612,55.95 -3.673,49.868 -5.474,43.449 -6.361,36.792 -7.1,31.248 -7.116,25.636 -6.299,20.061 -5.364,13.686 -3.368,7.648 -0.599,1.849 -0.377,1.385 -0.275,0.865 0,0"
       style="fill:#00a5aa;fill-opacity:1;fill-rule:evenodd;stroke:none"
       transform="matrix(0.12235965,0,0,-0.12235965,14.956035,31.404535)"
       clip-path="url(#clipPath368)" /><path
       id="path369"
       d="m 0,0 c 1.463,3.309 2.865,6.424 4.221,9.561 1.833,4.243 3.619,8.508 5.451,12.753 0.657,1.522 0.682,2.789 -0.646,4.091 -1.134,1.113 -0.945,1.655 0.527,3.74 1.266,-0.403 2.687,-0.684 3.955,-1.285 7.276,-3.45 14.516,-6.975 21.767,-10.478 0.216,-0.104 0.421,-0.23 0.624,-0.358 2.059,-1.297 2.351,-3.656 0.61,-5.34 -1.021,-0.987 -2.32,-0.741 -3.374,-0.232 -2.334,1.127 -2.572,0.315 -3.309,-1.227 C 27.729,6.841 25.701,2.424 23.679,-1.995 22.717,-4.096 21.866,-6.249 20.893,-8.344 20.253,-9.72 19.655,-10.006 18.453,-9.417 12.586,-6.537 6.746,-3.603 0.9,-0.681 0.691,-0.577 0.521,-0.397 0,0"
       style="fill:#362683;fill-opacity:1;fill-rule:evenodd;stroke:none"
       transform="matrix(0.12235965,0,0,-0.12235965,28.832024,14.108091)"
       clip-path="url(#clipPath370)" /><path
       id="path371"
       d="m 0,0 c -5.613,-0.729 -66.509,-0.268 -69.506,0.539 -0.19,2.047 -0.485,4.172 -0.554,6.303 -0.05,1.568 0.834,2.536 2.422,2.787 1.256,0.199 2.549,0.222 3.825,0.224 16.476,0.029 32.952,0.042 49.427,0.057 3.28,0.003 6.559,0.003 9.839,-0.007 C -3.828,9.901 -3.104,9.898 -2.392,9.816 -0.187,9.563 0.155,9.222 0.255,6.96 0.355,4.665 0.6,2.353 0,0"
       style="fill:#00a5aa;fill-opacity:1;fill-rule:evenodd;stroke:none"
       transform="matrix(0.12235965,0,0,-0.12235965,32.875863,29.448151)"
       clip-path="url(#clipPath372)" /><path
       id="path373"
       d="m 0,0 c 3.401,9.479 4.165,18.883 3.768,28.625 1.139,0.079 1.991,0.199 2.839,0.186 3.595,-0.058 7.191,-0.253 10.785,-0.219 7.827,0.075 15.654,0.262 23.48,0.398 0.867,0.015 1.735,0.002 2.742,0.002 C 43.472,27.051 42.448,26.081 40.993,25.46 39.159,24.676 37.318,23.903 35.464,23.166 32.487,21.981 30.101,20.017 28.18,17.513 27.134,16.15 25.938,15.076 24.384,14.358 16.39,10.673 8.808,6.289 1.749,1.016 1.337,0.707 0.854,0.492 0,0"
       style="fill:#ee7401;fill-opacity:1;fill-rule:evenodd;stroke:none"
       transform="matrix(0.12235965,0,0,-0.12235965,17.378843,21.22508)"
       clip-path="url(#clipPath374)" /><path
       id="path375"
       d="m 0,0 c -0.946,-0.082 -1.632,-0.189 -2.317,-0.189 -18.369,-0.012 -36.738,-0.014 -55.106,-0.006 -3.129,0 -3.169,0.052 -3.201,3.218 -0.014,1.277 -0.105,2.582 0.12,3.824 0.223,1.223 0.6,2.511 1.263,3.543 1.291,2.007 3.443,2.509 5.625,1.574 2.335,-1 4.595,-2.233 7.008,-2.979 3.749,-1.159 7.654,-1.601 11.589,-1.573 5.1,0.036 10.235,-0.429 15.255,0.903 1.618,0.43 3.329,0.709 4.794,1.456 2.984,1.523 5.696,1.061 8.38,-0.575 2.741,-1.67 4.653,-4.084 6.016,-6.945 C -0.284,1.642 -0.228,0.923 0,0"
       style="fill:#362683;fill-opacity:1;fill-rule:evenodd;stroke:none"
       transform="matrix(0.12235965,0,0,-0.12235965,32.121871,33.991646)"
       clip-path="url(#clipPath376)" /><path
       id="path377"
       d="m 0,0 c -0.708,0.213 -1.446,0.311 -2.056,0.643 -1.948,1.061 -2.164,2.606 -0.35,3.909 1.932,1.388 4.066,2.511 6.164,3.655 9.532,5.198 18.908,10.669 27.886,16.771 4.414,2.999 8.501,6.477 12.749,9.721 1.393,1.065 2.851,2.047 4.235,3.124 0.819,0.638 1.65,0.74 2.393,0.074 1.05,-0.941 2.11,-1.916 2.943,-3.042 0.766,-1.037 0.477,-2.103 -0.61,-2.912 C 51.816,30.801 50.296,29.633 48.79,28.45 42.707,23.667 36.655,18.837 29.985,14.875 22.5,10.428 14.808,6.368 6.88,2.758 5.501,2.13 4.175,1.38 2.779,0.794 1.909,0.429 0.953,0.265 0,0"
       style="fill:#00a5aa;fill-opacity:1;fill-rule:evenodd;stroke:none"
       transform="matrix(0.12235965,0,0,-0.12235965,25.966129,25.874147)"
       clip-path="url(#clipPath378)" /><path
       id="path379"
       d="m 0,0 c -0.375,-5.801 -1.782,-11.342 -4.099,-16.667 -0.613,-1.412 -1.56,-2.186 -3.138,-2.026 -4.387,0.443 -8.69,1.219 -12.787,2.955 -1.229,0.519 -1.614,1.327 -1.668,2.583 -0.154,3.506 1.369,6.39 3.416,8.99 2.914,3.702 6.625,6.412 11.047,8.133 2.419,0.941 4.54,-0.129 6.701,-0.88 C -0.224,2.982 0.008,2.336 0.061,1.913 0.14,1.288 0.03,0.639 0,0"
       style="fill:#00a5aa;fill-opacity:1;fill-rule:evenodd;stroke:none"
       transform="matrix(0.12235965,0,0,-0.12235965,23.429919,24.380258)"
       clip-path="url(#clipPath380)" /><path
       id="path381"
       d="m 0,0 c 1.127,1.664 2.018,2.979 2.91,4.294 0.693,1.018 1.495,1.212 2.663,0.648 3.729,-1.803 7.54,-3.436 11.253,-5.27 5.148,-2.543 10.262,-5.158 15.341,-7.836 4.076,-2.149 4.094,-2.353 2.355,-6.686 -1.297,-3.234 -1.463,-3.291 -4.67,-1.6 -7.757,4.092 -15.517,8.179 -23.271,12.279 -1.41,0.745 -2.819,1.498 -4.18,2.328 C 1.613,-1.362 0.925,-0.719 0,0"
       style="fill:#00a5aa;fill-opacity:1;fill-rule:evenodd;stroke:none"
       transform="matrix(0.12235965,0,0,-0.12235965,27.516302,14.937836)"
       clip-path="url(#clipPath382)" /><path
       id="path383"
       d="m 0,0 c -1.157,-1.302 -2.076,-2.392 -3.057,-3.424 -1.699,-1.787 -3.423,-3.553 -5.167,-5.298 -0.559,-0.56 -1.141,-1.204 -1.843,-1.484 -0.668,-0.267 -1.675,-0.404 -2.237,-0.082 -2.061,1.182 -3.999,2.578 -6.159,4.011 3.499,4.38 6.906,8.643 10.426,13.047 C -5.214,4.743 -2.646,2.442 0,0"
       style="fill:#00a5aa;fill-opacity:1;fill-rule:evenodd;stroke:none"
       transform="matrix(0.12235965,0,0,-0.12235965,34.014261,23.923746)"
       clip-path="url(#clipPath384)" /><path
       id="path385"
       d="M 0,0 C 4.418,2.414 9.353,3.882 14.357,5.725 14.702,5.143 15.189,4.653 15.289,4.093 15.653,2.05 15.915,-0.013 16.161,-2.074 16.289,-3.147 15.839,-3.893 14.76,-4.289 11.464,-5.497 8.204,-6.801 4.895,-7.967 2.925,-8.662 2.591,-8.385 2.011,-6.416 1.43,-4.438 0.78,-2.479 0,0"
       style="fill:#00a5aa;fill-opacity:1;fill-rule:evenodd;stroke:none"
       transform="matrix(0.12235965,0,0,-0.12235965,28.337801,25.988565)"
       clip-path="url(#clipPath386)" /><path
       id="path387"
       d="m 0,0 c 5.217,4.287 10.144,8.625 15.68,12.495 1.06,-1.529 1.988,-2.865 2.969,-4.28 -2.137,-3.158 -4.552,-6 -7.17,-8.675 C 10.533,-1.428 9.539,-2.35 8.556,-3.281 7.436,-4.34 6.157,-4.495 4.8,-3.826 3.077,-2.977 1.478,-1.955 0,0"
       style="fill:#362683;fill-opacity:1;fill-rule:evenodd;stroke:none"
       transform="matrix(0.12235965,0,0,-0.12235965,30.575771,23.94232)"
       clip-path="url(#clipPath388)" /><path
       id="path389"
       d="m 0,0 c 1.31,1.516 2.698,1.817 4.112,2.087 5.223,0.996 10.493,0.888 15.762,0.644 2.47,-0.114 4.945,-0.316 7.394,-0.654 1.86,-0.258 3.744,-0.678 4.908,-2.399 C 31.521,-1.642 30.393,-1.79 29.281,-1.81 23.298,-1.918 17.314,-2.025 11.33,-2.043 9.259,-2.049 7.187,-1.8 5.114,-1.669 3.363,-1.558 1.787,-0.966 0,0"
       style="fill:#362683;fill-opacity:1;fill-rule:evenodd;stroke:none"
       transform="matrix(0.12235965,0,0,-0.12235965,26.112984,32.14634)"
       clip-path="url(#clipPath390)" /><path
       id="path391"
       d="m 0,0 c 2.642,-0.105 5.671,-0.215 8.699,-0.35 1.154,-0.051 2.278,-0.208 2.58,-1.625 0.229,-1.066 -0.363,-2.357 -1.572,-2.97 C 8.871,-5.37 7.915,-5.62 6.984,-5.783 c -4.69,-0.822 -9.39,-0.644 -14.059,0.142 -1.143,0.192 -2.241,0.793 -3.292,1.336 -1.011,0.523 -1.519,1.444 -1.219,2.601 0.273,1.055 1.223,1.18 2.107,1.23 C -6.452,-0.3 -3.423,-0.167 0,0"
       style="fill:#362683;fill-opacity:1;fill-rule:evenodd;stroke:none"
       transform="matrix(0.12235965,0,0,-0.12235965,28.413444,29.894934)"
       clip-path="url(#clipPath392)" /><path
       id="path393"
       d="m 0,0 c 1.421,-1.689 1.288,-3.571 1.386,-5.377 0.051,-0.956 -0.63,-1.325 -1.461,-1.616 -3.53,-1.232 -7.046,-2.505 -10.555,-3.797 -1.715,-0.631 -3.392,-1.361 -5.105,-1.998 -0.979,-0.363 -2.038,-0.735 -2.75,0.458 -0.659,1.104 -0.358,2.213 0.794,3.141 0.306,0.247 0.646,0.464 0.996,0.647 5.218,2.735 10.44,5.464 15.666,8.185 C -0.754,-0.214 -0.437,-0.149 0,0"
       style="fill:#362683;fill-opacity:1;fill-rule:evenodd;stroke:none"
       transform="matrix(0.12235965,0,0,-0.12235965,30.079162,24.225338)"
       clip-path="url(#clipPath394)" /><path
       id="path395"
       d="m 0,0 c -2.155,-2.814 -4.167,-5.568 -6.321,-8.205 -1.31,-1.603 -2.485,-1.763 -3.7,-0.897 -0.806,0.574 -0.992,1.33 -0.377,2.037 2.392,2.753 4.803,5.494 7.309,8.143 C -2.183,2.036 -1.823,1.842 0,0"
       style="fill:#362683;fill-opacity:1;fill-rule:evenodd;stroke:none"
       transform="matrix(0.12235965,0,0,-0.12235965,34.334856,24.432127)"
       clip-path="url(#clipPath396)" /><path
       id="path397"
       d="m 0,0 c -5.468,0.096 -8.932,-3.196 -9.04,-8.591 -0.101,-5 3.499,-8.686 8.376,-8.859 4.096,-0.145 8.675,3.587 8.73,9.228 C 8.115,-3.169 4.254,0.192 0,0 m 13.893,-8.582 c -0.26,-6.306 -2.746,-11.216 -8.779,-13.876 -8.306,-3.663 -20.892,0.974 -20.143,14.037 0.314,5.479 2.842,9.836 7.396,12.751 3.429,2.194 7.374,2.521 11.319,1.388 6.184,-1.776 10.54,-7.917 10.207,-14.3"
       style="fill:#ffffff;fill-opacity:1;fill-rule:evenodd;stroke:none"
       transform="matrix(0.12235965,0,0,-0.12235965,24.026532,19.962952)"
       clip-path="url(#clipPath398)" /><path
       id="path399"
       d="m 0,0 c 0.184,6.926 -5.414,13.51 -13.445,13.476 -7.017,-0.03 -13.718,-5.439 -13.563,-13.069 0.172,-8.405 6.579,-13.378 13.842,-13.463 C -5.955,-13.14 0.191,-6.846 0,0 m -13.383,-17.188 c -10.236,-0.068 -17.873,7.669 -17.897,18.103 -0.025,10.896 9.284,17.288 17.717,17.173 C -1.891,17.928 4.445,8.424 4.346,0.11 4.23,-9.542 -3.743,-17.314 -13.383,-17.188"
       style="fill:#ffffff;fill-opacity:1;fill-rule:evenodd;stroke:none"
       transform="matrix(0.12235965,0,0,-0.12235965,21.59368,29.64143)"
       clip-path="url(#clipPath400)" /><path
       id="path401"
       d="m 0,0 c 4.254,0.192 8.115,-3.169 8.066,-8.222 -0.055,-5.641 -4.634,-9.373 -8.73,-9.228 -4.877,0.173 -8.477,3.859 -8.376,8.859 C -8.932,-3.196 -5.468,0.096 0,0"
       style="fill:#00a5aa;fill-opacity:1;fill-rule:evenodd;stroke:none"
       transform="matrix(0.12235965,0,0,-0.12235965,24.026532,19.962952)"
       clip-path="url(#clipPath402)" /><path
       id="path403"
       d="m 0,0 c 0.191,-6.846 -5.955,-13.14 -13.166,-13.056 -7.263,0.085 -13.67,5.058 -13.842,13.463 -0.155,7.63 6.546,13.039 13.563,13.069 C -5.414,13.51 0.184,6.926 0,0"
       style="fill:#00a5aa;fill-opacity:1;fill-rule:evenodd;stroke:none"
       transform="matrix(0.12235965,0,0,-0.12235965,21.59368,29.64143)"
       clip-path="url(#clipPath404)" /><text
       xml:space="preserve"
       style="font-size:4.23333px;text-align:start;writing-mode:lr-tb;direction:ltr;text-anchor:start;fill:#333333;fill-opacity:1;stroke:#000000;stroke-width:0.264583;stroke-opacity:1"
       x="-6.4114552"
       y="15.194942"
       id="text1"
       transform="rotate(-30)"><tspan
         sodipodi:role="line"
         id="tspan1"
         style="font-style:normal;font-variant:normal;font-weight:normal;font-stretch:normal;font-size:4.23333px;font-family:'Bauhaus 93';-inkscape-font-specification:'Bauhaus 93, ';fill:#333333;fill-opacity:1;stroke:none;stroke-width:0.264583"
         x="-6.4114552"
         y="15.194942">Generational</tspan></text><text
       xml:space="preserve"
       style="font-size:4.23333px;text-align:start;writing-mode:lr-tb;direction:ltr;text-anchor:start;fill:#333333;fill-opacity:1;stroke:#000000;stroke-width:0.264583;stroke-opacity:1"
       x="-31.044209"
       y="3.5973189"
       id="text1-7"
       transform="rotate(-90)"><tspan
         sodipodi:role="line"
         id="tspan1-6"
         style="font-style:normal;font-variant:normal;font-weight:normal;font-stretch:normal;font-size:4.23333px;font-family:'Bauhaus 93';-inkscape-font-specification:'Bauhaus 93, ';fill:#333333;fill-opacity:1;stroke:none;stroke-width:0.264583"
         x="-31.044209"
         y="3.5973189">Trans-</tspan></text><text
       xml:space="preserve"
       style="font-size:4.23333px;text-align:start;writing-mode:lr-tb;direction:ltr;text-anchor:start;fill:#333333;fill-opacity:1;stroke:#000000;stroke-width:0.264583;stroke-opacity:1"
       x="24.575769"
       y="-7.3487186"
       id="text2"
       transform="rotate(30)"><tspan
         sodipodi:role="line"
         id="tspan2"
         style="font-style:normal;font-variant:normal;font-weight:normal;font-stretch:normal;font-size:4.23333px;font-family:'Bauhaus 93';-inkscape-font-specification:'Bauhaus 93, ';fill:#333333;fill-opacity:1;stroke:none;stroke-width:0.264583"
         x="24.575769"
         y="-7.3487186">Training-</tspan></text><text
       xml:space="preserve"
       style="font-size:4.23333px;text-align:start;writing-mode:lr-tb;direction:ltr;text-anchor:start;fill:#333333;fill-opacity:1;stroke:#000000;stroke-width:0.264583;stroke-opacity:1"
       x="16.37891"
       y="-40.049625"
       id="text2-3"
       transform="rotate(90)"
       inkscape:transform-center-x="-8.6875191"
       inkscape:transform-center-y="-7.6705574"><tspan
         sodipodi:role="line"
         id="tspan2-2"
         style="font-style:normal;font-variant:normal;font-weight:normal;font-stretch:normal;font-size:4.23333px;font-family:'Bauhaus 93';-inkscape-font-specification:'Bauhaus 93, ';fill:#333333;fill-opacity:1;stroke:none;stroke-width:0.264583"
         x="16.37891"
         y="-40.049625">Networks</tspan></text><text
       xml:space="preserve"
       style="font-size:3.52778px;text-align:start;writing-mode:lr-tb;direction:ltr;text-anchor:start;fill:#333333;fill-opacity:1;stroke:#000000;stroke-width:0.264583;stroke-opacity:1"
       x="6.1066952"
       y="41.10202"
       id="text3"><tspan
         sodipodi:role="line"
         id="tspan3"
         style="font-style:normal;font-variant:normal;font-weight:normal;font-stretch:normal;font-size:3.52778px;font-family:'Bauhaus 93';-inkscape-font-specification:'Bauhaus 93, ';fill:#333333;fill-opacity:1;stroke:none;stroke-width:0.264583"
         x="6.1066952"
         y="41.10202">in Central Africa</tspan></text><text
       xml:space="preserve"
       style="font-size:2.11667px;text-align:start;writing-mode:lr-tb;direction:ltr;text-anchor:start;fill:#333333;stroke:none;stroke-width:0.1;stroke-dasharray:none;stroke-opacity:1"
       x="7.4845328"
       y="54.270611"
       id="text4"
       transform="rotate(-30)"><tspan
         sodipodi:role="line"
         id="tspan4"
         style="font-style:normal;font-variant:normal;font-weight:normal;font-stretch:normal;font-size:2.11667px;font-family:'Bauhaus 93';-inkscape-font-specification:'Bauhaus 93, ';fill:#333333;stroke:none;stroke-width:0.1;stroke-dasharray:none;stroke-opacity:1"
         x="7.4845328"
         y="54.270611">2021-2024</tspan></text></g><g
     id="g6"
     transform="translate(-0.94656272,-10.285982)"><g
       id="layer-MC0"
       inkscape:label="Layer 1"
       transform="matrix(0.01069228,0,0,0.01069228,14.27428,49.380985)"><path
         id="path1-1"
         d="m 268.656,298.249 h -62.865 v 147.554 h 62.865 z"
         style="fill:#007582;fill-opacity:1;fill-rule:nonzero;stroke:none"
         transform="matrix(1.3333333,0,0,-1.3333333,0,1122.52)" /><path
         id="path2-3"
         d="m 0,0 c -22.411,0 -58.079,-4.461 -81.002,-29.1 6.211,-22.421 22.378,-40.709 43.514,-49.65 7.731,21.693 31.183,24.796 45.903,24.796 7.419,0 12.869,-0.993 12.869,-0.993 V -1.498 C 21.284,-1.498 12.874,0 0,0"
         style="fill:#2a3692;fill-opacity:1;fill-rule:nonzero;stroke:none"
         transform="matrix(1.3333333,0,0,-1.3333333,411.66667,276.2056)"
         clip-path="url(#clipPath3)" /><path
         id="path4-8"
         d="m 0,0 c -4.169,-0.824 -8.421,-1.257 -12.833,-1.257 v -0.005 c -36.78,0 -66.61,29.817 -66.61,66.613 0,3.964 0.182,7.848 0.856,11.628 h -52.289 l -0.373,-11.628 c 0,-65.413 53.02,-118.424 118.416,-118.424 7.364,0 14.645,0.789 21.632,2.07 C 0.279,-35.728 -2.967,-18.365 0,0"
         style="fill:#231f20;fill-opacity:1;fill-rule:nonzero;stroke:none"
         transform="matrix(1.3333333,0,0,-1.3333333,1240.6549,652.22187)"
         clip-path="url(#clipPath5-3)" /><path
         id="path6"
         d="m 0,0 c 0,65.379 -53.021,118.396 -118.409,118.396 -61.471,0 -111.987,-46.851 -117.831,-106.765 h 52.297 c 5.506,31.223 32.72,54.965 65.534,54.965 36.773,0 66.593,-29.823 66.593,-66.596 z"
         style="fill:#2a3692;fill-opacity:1;fill-rule:nonzero;stroke:none"
         transform="matrix(1.3333333,0,0,-1.3333333,1381.1303,565.07987)"
         clip-path="url(#clipPath7)" /><path
         id="path8"
         d="m 0,0 v -4.583 c -1.839,-27.024 -19.706,-49.62 -44.241,-58.25 -3.004,-1.055 -6.113,-1.903 -9.299,-2.523 -0.685,-4.201 -1.147,-8.486 -1.147,-12.879 0,-13.857 3.63,-26.843 9.946,-38.124 53.354,9.847 94.063,55.405 96.556,111.006 V 0 Z"
         style="fill:#21b5b0;fill-opacity:1;fill-rule:nonzero;stroke:none"
         transform="matrix(1.3333333,0,0,-1.3333333,1312.0416,565.07987)"
         clip-path="url(#clipPath9)" /><path
         id="path10"
         d="m 0,0 h 0.918 c 0,0 2.268,-12.876 5.976,-25.355 l 2.925,-9.787 c 16.382,1.922 30.751,8.844 42.435,19.273 L 26.352,74.92 H -25.431 L -51.21,-16.412 c 11.597,-10.132 26.185,-16.923 42.298,-18.811 l 2.894,9.795 C -2.313,-12.94 0,0 0,0"
         style="fill:#21b5b0;fill-opacity:1;fill-rule:nonzero;stroke:none"
         transform="matrix(1.3333333,0,0,-1.3333333,747.25133,512.6124)"
         clip-path="url(#clipPath11)" /><path
         id="path12"
         d="M 0,0 24.947,84.438 C 14.282,95.892 0.265,104.156 -15.593,107.59 L -23.115,80.917 C -26.822,68.435 -28.676,55.95 -28.676,55.95 h -0.915 c 0,0 -1.396,12.485 -4.626,24.967 l -7.391,27.875 C -61.955,106.36 -79.91,96.16 -92.381,81.188 L -66.583,0 Z"
         style="fill:#f36917;fill-opacity:1;fill-rule:nonzero;stroke:none"
         transform="matrix(1.3333333,0,0,-1.3333333,686.7272,725.28307)"
         clip-path="url(#clipPath13)" /><path
         id="path14"
         d="m 0,0 30.981,-96.377 c 12.442,14.948 30.464,25.154 50.773,27.604 L 54.096,34.216 C 49.474,52.236 40.224,58.257 20.806,58.257 H -19.421 V 8.313 h 6.475 C -6.016,8.313 -2.311,6.937 0,0"
         style="fill:#21b5b0;fill-opacity:1;fill-rule:nonzero;stroke:none"
         transform="matrix(1.3333333,0,0,-1.3333333,522.24347,488.52973)"
         clip-path="url(#clipPath15)" /><path
         id="path16"
         d="m 0,0 h -60.486 l -13.298,-50.858 c -2.821,-10.872 -4.236,-21.732 -4.548,-24.35 v -56.567 h 36.457 z"
         style="fill:#007582;fill-opacity:1;fill-rule:nonzero;stroke:none"
         transform="matrix(1.3333333,0,0,-1.3333333,954.0312,549.5832)"
         clip-path="url(#clipPath17)" /><path
         id="path18"
         d="M 0,0 H -31.191 V -50.002 H 0 V -87.946 H 62.87 V -50.002 0 Z"
         style="fill:#f36917;fill-opacity:1;fill-rule:nonzero;stroke:none"
         transform="matrix(1.3333333,0,0,-1.3333333,274.388,410.84747)"
         clip-path="url(#clipPath19)" /><path
         id="path20"
         d="M 0,0 C -21.136,8.941 -37.3,27.227 -43.517,49.653 -56.549,35.639 -65.474,15.155 -65.474,-14.812 v -7.43 h 62.87 v 5.954 C -2.604,-9.921 -1.632,-4.571 0,0"
         style="fill:#231f20;fill-opacity:1;fill-rule:nonzero;stroke:none"
         transform="matrix(1.3333333,0,0,-1.3333333,361.67187,381.19187)"
         clip-path="url(#clipPath21)" /><path
         id="path22"
         d="m 0,0 h -0.918 c 0,0 -1.388,12.479 -5.084,24.961 L -24.33,87.678 C -35.911,77.338 -50.551,70.396 -66.76,68.405 L -29.586,-55.956 H 0.168 V 0.611"
         style="fill:#231f20;fill-opacity:1;fill-rule:nonzero;stroke:none"
         transform="matrix(1.3333333,0,0,-1.3333333,849.3568,650.67493)"
         clip-path="url(#clipPath23)" /><path
         id="path24"
         d="m 268.656,483.758 h 53.948 v 49.997 h -53.948 z"
         style="fill:#231f20;fill-opacity:1;fill-rule:nonzero;stroke:none"
         transform="matrix(1.3333333,0,0,-1.3333333,0,1122.52)"
         clip-path="url(#clipPath25)" /><path
         id="path26"
         d="M 0,0 C -19.417,0 -28.668,-6.016 -33.293,-24.035 L -54.12,-104.039 H 6.373 l 14.436,45.788 c 2.776,6.936 6.012,8.315 12.951,8.315 h 6.469 V 0 Z"
         style="fill:#231f20;fill-opacity:1;fill-rule:nonzero;stroke:none"
         transform="matrix(1.3333333,0,0,-1.3333333,945.53387,410.8612)"
         clip-path="url(#clipPath27)" /><path
         id="path28"
         d="m 0,0 c -16.057,1.874 -30.708,8.737 -42.282,18.814 l -9.793,-35.516 c 15.826,-3.417 29.881,-11.735 40.541,-23.14 z"
         style="fill:#231f20;fill-opacity:1;fill-rule:nonzero;stroke:none"
         transform="matrix(1.3333333,0,0,-1.3333333,735.3692,559.5688)"
         clip-path="url(#clipPath29)" /></g></g></svg>
